<svg xmlns="http://www.w3.org/2000/svg" viewBox="0 0 176.75 30.08"><defs><style>.cls-1{fill:url(#linear-gradient)}.cls-2{fill:url(#linear-gradient-2)}.cls-3{fill:url(#linear-gradient-3)}</style><linearGradient id="linear-gradient" x1="6.87" y1="126.88" x2="6.87" y2="107.94" gradientTransform="matrix(1 0 0 -1 0 129.73)" gradientUnits="userSpaceOnUse"><stop offset="0" stop-color="#02602c"/><stop offset=".07" stop-color="#136b2f"/><stop offset=".28" stop-color="#3e8635"/><stop offset=".48" stop-color="#609b3a"/><stop offset=".68" stop-color="#78ab3e"/><stop offset=".85" stop-color="#87b440"/><stop offset="1" stop-color="#8cb741"/></linearGradient><linearGradient id="linear-gradient-2" x1="3.56" y1="103.94" x2="13.28" y2="108.18" gradientTransform="matrix(1 0 0 -1 0 129.73)" gradientUnits="userSpaceOnUse"><stop offset="0" stop-color="#097778"/><stop offset=".28" stop-color="#1f9e98"/><stop offset=".54" stop-color="#31bfb3"/></linearGradient><linearGradient id="linear-gradient-3" x1="14.34" y1="127.8" x2="26.29" y2="99.9" gradientTransform="matrix(1 0 0 -1 0 129.73)" gradientUnits="userSpaceOnUse"><stop offset="0" stop-color="#02a8e2"/><stop offset=".94" stop-color="#1a57a7"/></linearGradient></defs><title>logo</title><path d="M107.09 22.48V5c4 .22 8-.79 11.74 1.53a8.68 8.68 0 0 1 3.8 9.21c-.61 3.19-3.71 6.33-7 6.63a79.79 79.79 0 0 1-8.54.11zm3.19-14.66v12a31.32 31.32 0 0 0 4.54 0 5.81 5.81 0 0 0 4.93-5.94A5.66 5.66 0 0 0 114.68 8c-1.44-.14-2.83-.1-4.41-.19zm-25.1 5.88a9.19 9.19 0 0 1 9.25-8.95c5 .17 9.21 4.45 8.95 9.3A9 9 0 0 1 94.13 23a9.17 9.17 0 0 1-8.95-9.3zm3.1 0a6 6 0 1 0 12 .39 6 6 0 1 0-12-.39zm50.28 6.07v2.79h-12.49V5h12.48v2.73h-9.3v4.58h5.89v2.75h-5.94v4.71zm25.66-6.5c2.4-2.62 5.24-5.67 7.81-8.51h-4l-7.64 7.94V4.76h-3V22.3h3.06v-8.81s5.5 5.59 8.34 8.82h4.15c-2.83-2.93-6.32-6.55-8.72-9.04zM42.58 4.76h-3l-7.74 17.67h3.4L37 18.2h8.2l1.8 4.23h3.36zm-4.45 10.69l2.88-7 3 7zM70.3 7.46h5.63v14.93h2.88V7.51h4.67l1.18-2.75H70.3v2.7zm77.86 4.76c-4.1-1.18-3.62-2.92-3.4-3.4s.92-1.35 3.54-1.35a9.45 9.45 0 0 1 4.45 1.09l1.13-2.31a10.45 10.45 0 0 0-5.68-1.45c-3.49-.09-6.59 1.92-6.59 4.71s1.7 4.1 5 5.06c3.75 1.09 4.89 2.05 4.89 3.45s-.79 2.4-3.49 2.4c-2.31 0-5.15-1.83-5.85-2.36L141 20.43c.92.61 4.23 2.49 7.11 2.49 3.32 0 6.07-1.61 6.15-5s-2.39-4.65-6.1-5.7zm-84.54 3.01a4.41 4.41 0 0 1-8.82 0V4.76h-3.27V15a7.64 7.64 0 1 0 15.27 0V4.76h-3.18zm113.13 5.98a1.13 1.13 0 0 1-1.13 1.13 1.1 1.1 0 0 1-1.13-1.13 1.12 1.12 0 0 1 1.13-1.09 1.09 1.09 0 0 1 1.13 1.09zm-2 0a.85.85 0 0 0 .87.87.87.87 0 0 0 0-1.75.85.85 0 0 0-.84.88zm.65.61h-.26v-1.09h.44a.74.74 0 0 1 .39.09.37.37 0 0 1 .09.26.28.28 0 0 1-.22.26.45.45 0 0 1 .22.26c0 .17 0 .22.09.26h-.26s0-.13-.09-.26-.09-.17-.22-.17h-.13v.44zm0-.65h.13c.13 0 .26 0 .26-.17a.2.2 0 0 0-.22-.17h-.13v.35z"/><path class="cls-1" d="M9.46.09a1.34 1.34 0 0 0-1.1.52L.16 20a.14.14 0 0 1 0 .09 1.67 1.67 0 0 0 0 1.22l.09.17a1.87 1.87 0 0 0 1.44.83h5.84l6.2-14.58C12.16 4.06 11 1.27 10.81.92A1.34 1.34 0 0 0 9.46.09z"/><path class="cls-2" d="M1.69 22.35a2 2 0 0 1-1.44-.83l2.31 4.28 1.88 3.45a2 2 0 0 0 1.44.83 8.62 8.62 0 0 0 3.45-1.13c.39-.22 9.43-5.8 10.61-6.55H7.62c-3.1-.05-5.62-.05-5.93-.05z"/><path d="M.25 21.52l-.09-.17a.33.33 0 0 0 .09.17z"/><path class="cls-3" d="M19.28.74A1.21 1.21 0 0 0 18 0H9.41a1.65 1.65 0 0 0-1.09.61A1.45 1.45 0 0 1 9.41.09a1.45 1.45 0 0 1 1.44.83c.17.35 1.35 3.14 2.92 6.85 3.4 8.12 8.69 20.69 9.38 22.3h8.47z"/></svg>