<svg width="63" height="63" viewBox="0 0 63 63" fill="none" xmlns="http://www.w3.org/2000/svg">
<g clip-path="url(#clip0_484_909)">
<path d="M49.7716 31.706C49.7716 41.8072 41.595 49.9838 31.4938 49.9838V31.706H49.7716ZM31.4938 13.4282V31.706H13.216C13.216 21.6048 21.3926 13.4282 31.4938 13.4282Z" fill="#0166B1"/>
<path d="M31.4938 13.4282C41.5949 13.4282 49.7716 21.6048 49.7716 31.706H31.4938V13.4282ZM13.216 31.706H31.4938V49.9838C21.3926 49.9838 13.216 41.8071 13.216 31.706Z" fill="white"/>
<path d="M31.4938 13.4283V14.4304C41.0187 14.4304 48.7694 22.1794 48.7694 31.7061H49.7716C49.7716 21.6121 41.5877 13.4283 31.4938 13.4283ZM31.4938 48.9817C21.9689 48.9817 14.2182 41.2327 14.2182 31.7061H13.216C13.216 41.8 21.3999 49.9838 31.4938 49.9838V48.9817ZM31.4938 0.862305C14.4597 0.862305 0.650047 14.672 0.650047 31.7061C0.650047 48.7401 14.4597 62.5498 31.4938 62.5498C48.5279 62.5498 62.3375 48.7401 62.3375 31.7061C62.3375 14.672 48.5279 0.862305 31.4938 0.862305ZM60.3318 31.7061C60.3318 47.6321 47.4216 60.5441 31.4938 60.5441C15.566 60.5441 2.65576 47.6321 2.65576 31.7061C2.65576 15.78 15.5678 2.86802 31.4938 2.86802C47.4198 2.86802 60.3318 15.78 60.3318 31.7061Z" fill="#6F6F6F"/>
<path d="M18.3129 16.8264C19.2985 15.7954 19.8566 14.6042 18.8709 13.4671C18.3347 12.8499 17.4342 12.7149 16.6877 13.019L16.6134 13.0478L16.637 12.983C16.7475 12.6897 16.8182 11.7541 16.0155 11.1081C15.6242 10.7933 15.1332 10.6763 14.6367 10.7267C13.7109 10.8203 12.9989 11.4482 11.0602 13.5948C10.475 14.2426 9.62346 15.2646 9.11253 15.9267L14.4374 20.9432C16.2021 19.0036 16.9214 18.282 18.3129 16.8264ZM11.3646 15.5993C12.4372 14.2965 13.5768 13.1144 14.0932 12.6466C14.2563 12.499 14.4338 12.3515 14.6494 12.2939C14.9991 12.1985 15.3597 12.445 15.4412 12.8013C15.5227 13.1594 15.2962 13.4994 15.0444 13.7801C14.4773 14.4153 12.3973 16.5763 12.3973 16.5763L11.3646 15.5993ZM13.45 17.5641C13.45 17.5641 15.4756 15.4373 16.1369 14.7572C16.3996 14.4873 16.5681 14.3235 16.7493 14.2354C16.983 14.122 17.2385 14.0986 17.4668 14.2498C17.6915 14.3991 17.7947 14.6564 17.7386 14.9119C17.6715 15.216 17.4215 15.5057 17.215 15.727C16.9359 16.0239 14.5335 18.5771 14.5298 18.5807L13.45 17.5641ZM32.1026 10.8436L33.8075 7.05067L33.9162 6.7142L33.8854 7.06507L34.0648 12.1338C34.6627 12.1895 35.2805 12.2723 35.8893 12.3731L35.6121 4.86629C34.7605 4.77273 33.9126 4.70615 33.0647 4.67017L31.3851 8.81041L31.3253 9.11809L31.2655 8.81041L29.5878 4.67017C28.7399 4.70615 27.892 4.77273 27.0404 4.86629L26.7632 12.3731C27.372 12.2723 27.9898 12.1913 28.5877 12.1338L28.7671 7.06507L28.7363 6.7142L28.845 7.05067L30.5499 10.8436H32.1026H32.1026ZM46.2619 18.6905C46.6804 19.1367 47.2838 19.8565 47.6226 20.2937L53.8624 16.3604C53.5508 15.9555 53.0544 15.3402 52.683 14.9065L48.7314 17.5011L48.4614 17.7315L48.6625 17.44L50.4073 13.9817L49.1735 12.7563L45.6894 14.4891L45.3959 14.6888L45.6296 14.4207L48.244 10.4982C47.7838 10.1095 47.3417 9.75325 46.7783 9.32142L42.8176 15.5129C43.3195 15.8961 43.9808 16.4593 44.403 16.8426L48.1317 14.9209L48.3708 14.7464L48.1951 14.9839L46.2619 18.6905Z" fill="#6F6F6F"/>
</g>
<defs>
<clipPath id="clip0_484_909">
<rect width="61.6875" height="61.6875" fill="white" transform="translate(0.650045 0.862305)"/>
</clipPath>
</defs>
</svg>
