<svg preserveAspectRatio="xMinYMin meet" id="Layer_1" xmlns="http://www.w3.org/2000/svg" width="67.1" height="38.4" viewBox="0 0 67.1 38.4"><style>.st0{fill:#0081c6}</style><title>logo</title><path class="st0" d="M36 11.7c-4.8 0-9.2 2.7-11.5 6.9-3.4-6.3-11.2-8.8-17.6-5.4-.6.3-1.2.7-1.7 1.1v-11C5.2 1.9 4 .7 2.6.7S0 1.9 0 3.3v21.6c.1 7.2 6 12.9 13.2 12.8 4.7-.1 9.1-2.7 11.3-6.9 3.4 6.4 11.2 8.8 17.6 5.4 6.4-3.4 8.8-11.2 5.4-17.6-2.3-4.3-6.7-6.9-11.5-6.9zM13 32.5c-4.3 0-7.8-3.5-7.8-7.8s3.5-7.8 7.8-7.8 7.8 3.5 7.8 7.8-3.5 7.8-7.8 7.8zm23 0c-4.3 0-7.8-3.5-7.8-7.8s3.5-7.8 7.8-7.8 7.8 3.5 7.8 7.8-3.5 7.8-7.8 7.8z"/><path class="st0" d="M66.5 33.6l-6.6-8.9 6.7-8.9c.9-1.2.6-2.8-.5-3.6-1.2-.9-2.8-.6-3.6.5l-5.8 7.7-5.8-7.7c-.9-1.2-2.5-1.4-3.6-.5s-1.4 2.5-.5 3.6l6.6 8.9-6.7 8.9c-.7 1.2-.3 2.8.9 3.6 1.1.6 2.4.4 3.3-.5l5.8-7.7 5.8 7.7c.9 1.2 2.5 1.4 3.6.5 1-.9 1.3-2.5.4-3.6z"/></svg>
