<svg id="Layer_1" data-name="Layer 1" xmlns="http://www.w3.org/2000/svg" viewBox="0 0 140.05 29.85"><defs><style>.cls-1{fill:#231f20}.cls-2{fill:#00a5ef}</style></defs><title>logo</title><g id="Page-1"><g id="P1-v18---1440px"><g id="discovery-logo"><path id="Fill-19" class="cls-1" d="M11.72 3.42V0h7.1c5.79 0 11 3.16 11 10.23C29.81 17 23.38 20 19.74 20h-6.6a6.7 6.7 0 0 0 3-3.23h3.64a6.35 6.35 0 0 0 6.39-6.52c0-4.29-2.68-7-6.39-7h-4.47v3a7.7 7.7 0 0 0-3.59-2.75"/><path id="Fill-22" class="cls-1" d="M35.32 19.98h-3.54V4.97h3.54v15.01z"/><path id="Fill-24" class="cls-1" d="M49.23 6.49l-1.36 2.39c-1.46-1.23-6.29-2.39-6.29.14 0 2.8 8 1.22 8 6.76 0 4.89-7 6-12 2.3l1.58-2.3c1.43 1.43 7.25 3.29 7.25.21s-8.09-1.31-8.09-6.76c0-4.69 6.44-5.83 10.91-2.75"/><path id="Fill-25" class="cls-1" d="M62.82 9.6c-2.37-3.08-8.19-2.53-8.19 3s6.31 5.88 8.31 2.9L65 17.59c-4.68 5.56-13.87 2.39-13.87-5 0-7.66 9.19-10.38 13.78-5.35L62.82 9.6z"/><path id="Fill-26" class="cls-1" d="M74 17.36a4.57 4.57 0 0 1-4.65-4.82A4.55 4.55 0 0 1 74 7.72a4.76 4.76 0 0 1 4.54 4.82A4.58 4.58 0 0 1 74 17.36m-.08-12.64a7.94 7.94 0 0 0-8 7.84 8 8 0 0 0 16.09 0 7.94 7.94 0 0 0-8-7.84"/><path id="Fill-27" class="cls-1" d="M82.08 4.97h3.73l4.03 11.08 4.07-11.08h3.63l-6.13 15.22h-3.13l-6.2-15.22z"/><path id="Fill-28" class="cls-1" d="M101.29 11.15c.82-4.83 7.17-4.85 7.73 0zm-3.43 1.39c0 8.1 10.19 10.21 13.91 5.05l-2-1.8c-1.57 2.29-7.45 3.24-8.43-2h11.11c.86-12.16-14.54-11.39-14.54-1.21z"/><path id="Fill-29" class="cls-1" d="M115 5h3.51v2.52a7.11 7.11 0 0 1 4.59-2.38L124.26 8c-1.51 0-5.76 1.59-5.76 5.85V20H115V5z"/><path id="Fill-30" class="cls-1" d="M125.39 5h3.67l3.58 11 3.86-11h3.56s-6.18 15.81-7.35 18.74c-.92 2.26-2.22 3.26-5.17 3.26h-2.16v-2.86H128c1.57 0 2.93-4.15 2.93-4.15L125.39 5z"/><path id="Fill-1" class="cls-1" d="M64.74 25.44l-.68.66a2.08 2.08 0 0 0-1.56-.74 1.66 1.66 0 0 0-1.23.51 1.72 1.72 0 0 0-.5 1.25A1.88 1.88 0 0 0 61 28a1.6 1.6 0 0 0 .63.63 1.79 1.79 0 0 0 .9.23 1.83 1.83 0 0 0 .77-.16 2.77 2.77 0 0 0 .77-.58l.66.7a3.61 3.61 0 0 1-1.07.78 2.85 2.85 0 0 1-1.14.22 2.61 2.61 0 0 1-1.94-.77 2.68 2.68 0 0 1-.76-2 2.73 2.73 0 0 1 .34-1.38 2.58 2.58 0 0 1 1-1 2.74 2.74 0 0 1 1.38-.37 2.85 2.85 0 0 1 1.21.27 2.91 2.91 0 0 1 1 .77"/><path id="Fill-3" class="cls-1" d="M69.67 24.43h1.05v2.17h2.46v-2.17h.99v5.41h-.99v-2.25h-2.46v2.25h-1.05v-5.41z"/><path id="Fill-5" class="cls-1" d="M81.88 25.68L81 27.6h1.72l-.83-1.91zm-.45-1.27h.92l2.36 5.42h-1.1l-.55-1.33h-2.41l-.57 1.34H79l2.39-5.42z"/><path id="Fill-7" class="cls-1" d="M89.53 24.42h1.07l2.73 3.59v-3.59h.97v5.42h-.97l-2.76-3.79.01 3.79h-1.05v-5.42z"/><path id="Fill-9" class="cls-1" d="M99.6 24.42h1.07l2.73 3.59.01-3.59h.96v5.42h-.96l-2.76-3.79.01 3.79H99.6v-5.42z"/><path id="Fill-11" class="cls-1" d="M109.66 24.41h4.07v.88h-3.01v1.31h2.67v.99h-2.67v1.26h3.01v.98h-4.07v-5.42z"/><path id="Fill-13" class="cls-1" d="M118.81 24.42h1.06v4.43h2.75v.98h-3.81v-5.41z"/><path id="Fill-15" class="cls-1" d="M133.98 26.94v-1.45h-.57v-.2h1.37v.2h-.57v1.45h-.23z"/><path id="Fill-17" class="cls-1" d="M134.93 26.94v-1.65h.34l.4 1.17.08.24.09-.27.41-1.15h.3v1.65h-.22v-1.37l-.49 1.39h-.2l-.49-1.41v1.41z"/><path id="planet" class="cls-2" d="M15.71 12.1a7.86 7.86 0 1 1-7.85-7.86 7.86 7.86 0 0 1 7.85 7.85"/></g></g></g></svg>