<?xml version="1.0" encoding="utf-8"?>
<!-- Generator: Adobe Illustrator 18.1.1, SVG Export Plug-In . SVG Version: 6.00 Build 0)  -->
<!DOCTYPE svg PUBLIC "-//W3C//DTD SVG 1.1//EN" "http://www.w3.org/Graphics/SVG/1.1/DTD/svg11.dtd">
<svg version="1.1" id="Layer_1" xmlns="http://www.w3.org/2000/svg" xmlns:xlink="http://www.w3.org/1999/xlink" x="0px" y="0px"
	 viewBox="0 0 794.3 319.7" enable-background="new 0 0 794.3 319.7" xml:space="preserve">
<g>
	<polygon fill="#4C83C3" points="791.4,24.2 660.3,24.2 668.4,1.6 791.4,1.6 	"/>
	<path fill="#4C83C3" d="M441.9,1.6l121.7,0l8,22.7c0.1,0-129.6,0-129.6,0C442,24.2,441.9,1.6,441.9,1.6z"/>
	<path fill="#4C83C3" d="M345.3,1.6c20.1,1.9,37.5,9.1,52.4,22.6c0,0-220.6,0-220.6,0c0,0,0-22.6,0-22.6L345.3,1.6z"/>
	<g>
		<rect x="3.9" y="1.6" fill="#4C83C3" width="153.3" height="22.6"/>
		<path fill="#4C83C3" d="M80.5,12.9"/>
	</g>
	<path fill="#4C83C3" d="M791.4,66.6H645.3c0,0,8-22.5,7.9-22.5h138.2V66.6z"/>
	<polygon fill="#4C83C3" points="586.7,66.6 441.9,66.6 441.9,44.1 578.8,44.1 	"/>
	<path fill="#4C83C3" d="M414.8,44.1c2.9,7.4,6.3,13.8,6.3,22.5H177V44.1H414.8z"/>
	<g>
		<rect x="3.9" y="44.1" fill="#4C83C3" width="153.3" height="22.5"/>
		<path fill="#4C83C3" d="M80.5,55.3"/>
	</g>
	<polygon fill="#4C83C3" points="630.4,109.1 638.4,86.5 748.1,86.5 748.1,109 	"/>
	<polygon fill="#4C83C3" points="593.7,86.5 601.7,109.1 485.1,109.1 485.1,86.5 	"/>
	<path fill="#4C83C3" d="M423.1,86.5c0,7.8-1,15.8-3.2,22.6H353V86.5H423.1z"/>
	<g>
		<rect x="46.6" y="86.6" fill="#4C83C3" width="65.9" height="22.5"/>
		<path fill="#4C83C3" d="M79.5,97.8"/>
	</g>
	<g>
		<rect x="221.4" y="86.5" fill="#4C83C3" width="65.8" height="22.6"/>
		<path fill="#4C83C3" d="M254.3,97.8"/>
	</g>
	<path fill="#4C83C3" d="M549.9,133.5c0,0,0,17.1,0,17.1h-64.8v-22.5h123.5l7.7,21c0,0,7.4-21,7.4-21H748v22.5h-64.5
		c0,0,0-17.1,0-17.1l-6,17.1l-121.8,0L549.9,133.5z"/>
	<path fill="#4C83C3" d="M221.4,128.1h188.8v0c-4.1,7.5-11.6,16.7-18.7,22.5c0,0-170.1,0-170.1,0
		C221.4,150.6,221.4,128.2,221.4,128.1z"/>
	<g>
		<rect x="46.6" y="128.1" fill="#4C83C3" width="65.9" height="22.5"/>
		<path fill="#4C83C3" d="M79.5,139.4"/>
	</g>
	<g>
		<rect x="683.6" y="170.5" fill="#4C83C3" width="64.5" height="22.5"/>
		<path fill="#4C83C3" d="M715.8,181.8"/>
	</g>
	<path fill="#4C83C3" d="M549.9,170.5h-64.8V193c0,0,64.8,0,64.8,0C549.9,193,550,170.5,549.9,170.5z"/>
	<path fill="#4C83C3" d="M670.6,170.5c-0.3,0-7.6,22.5-7.9,22.5l-91.8,0c-0.1,0-8.1-22.6-8.1-22.5H670.6z"/>
	<path fill="#4C83C3" d="M221.4,170.5h169.7c7.8,6.5,14.8,14.4,20.2,22.5c0.3,0-190,0-190,0C221.4,193,221.4,170.6,221.4,170.5z"/>
	<path fill="#4C83C3" d="M112.5,193v-22.5H46.7c0,0,0,22.5,0,22.5C46.7,193,112.4,193,112.5,193z"/>
	<g>
		<rect x="683.6" y="213" fill="#4C83C3" width="64.5" height="22.5"/>
		<path fill="#4C83C3" d="M715.8,224.2"/>
	</g>
	<g>
		<rect x="485.1" y="213" fill="#4C83C3" width="64.8" height="22.5"/>
		<path fill="#4C83C3" d="M517.5,224.2"/>
	</g>
	<path fill="#4C83C3" d="M647.6,235.6c0-0.1,8-22.6,8.1-22.6h-78.1c-0.1,0,8,22.5,8,22.5S647.6,235.7,647.6,235.6z"/>
	<path fill="#4C83C3" d="M221.4,235.5c0,0.1,0-22.5,0-22.5h66.7c0,0,0.1,22.5,0,22.5C288.1,235.5,221.4,235.4,221.4,235.5z"/>
	<path fill="#4C83C3" d="M420.7,213c3.2,6.8,3.6,14.9,4.2,22.6h-70.7V213H420.7z"/>
	<g>
		<rect x="46.7" y="213" fill="#4C83C3" width="65.8" height="22.5"/>
		<path fill="#4C83C3" d="M79.6,224.2"/>
	</g>
	<g>
		<rect x="683.6" y="254.5" fill="#4C83C3" width="107.8" height="22.5"/>
		<path fill="#4C83C3" d="M737.5,265.8"/>
	</g>
	<g>
		<rect x="441.9" y="254.5" fill="#4C83C3" width="107.9" height="22.5"/>
		<path fill="#4C83C3" d="M495.9,265.8"/>
	</g>
	<polygon fill="#4C83C3" points="633.1,277 600.2,277 592.3,254.5 640.7,254.5 	"/>
	<path fill="#4C83C3" d="M3.9,254.5V277H157c0.1,0-0.1-22.5,0-22.5C157.1,254.5,3.7,254.5,3.9,254.5z"/>
	<path fill="#4C83C3" d="M422.1,254.5c-1.6,7.4-3.1,16.5-8.5,22.5l-2,0H177v-22.5H422.1z"/>
	<polygon fill="#4C83C3" points="618.2,319.5 615.2,319.5 607.5,296.9 626.1,296.9 	"/>
	<g>
		<rect x="683.6" y="296.9" fill="#4C83C3" width="107.8" height="22.6"/>
		<path fill="#4C83C3" d="M737.5,308.2"/>
	</g>
	<path fill="#4C83C3" d="M177,319.5v-22.5c0,0,221.3,0,221.9,0c-14.9,14.2-35.2,22.2-57.2,22.5L177,319.5"/>
	<g>
		<rect x="441.9" y="296.9" fill="#4C83C3" width="107.9" height="22.6"/>
		<path fill="#4C83C3" d="M495.9,308.2"/>
	</g>
	<path fill="#4C83C3" d="M157,297c0,0-0.1,22.4,0,22.4c0.1,0-153.1,0.1-153.2,0c0,0,0-22.6,0-22.6C3.8,296.9,157,297.1,157,297z"/>
</g>
</svg>
