<svg viewBox="0 0 86 60" preserveAspectRatio="xMidYMid meet" xmlns="http://www.w3.org/2000/svg"><title>salesforce logo</title><g fill="none" fill-rule="evenodd"><path d="M35.85 6.585c2.766-2.872 6.618-4.653 10.879-4.653 5.663 0 10.604 3.145 13.235 7.816a18.353 18.353 0 0 1 7.48-1.584c10.215 0 18.497 8.323 18.497 18.59s-8.282 18.59-18.496 18.59c-1.247 0-2.465-.125-3.644-.362a13.524 13.524 0 0 1-11.8 6.9c-2.122 0-4.127-.488-5.916-1.357a15.428 15.428 0 0 1-14.198 9.366A15.43 15.43 0 0 1 17.41 49.83a14.33 14.33 0 0 1-2.942.305C6.559 50.136.149 43.682.149 35.72c0-5.337 2.879-9.995 7.16-12.488a16.454 16.454 0 0 1-1.371-6.594C5.938 7.483 13.398.06 22.6.06c5.403 0 10.205 2.56 13.25 6.526" fill="#00A1E0"/><path d="M12.574 31.086c-.054.141.02.17.037.194.161.117.324.2.49.295.874.462 1.701.597 2.565.597 1.76 0 2.853-.932 2.853-2.434v-.029c0-1.388-1.234-1.893-2.39-2.257l-.151-.048c-.873-.282-1.626-.526-1.626-1.1v-.028c0-.49.44-.85 1.122-.85.758 0 1.657.25 2.236.57 0 0 .171.11.233-.055l.358-.96c.033-.092-.025-.161-.085-.198-.662-.4-1.576-.674-2.522-.674l-.175.001c-1.612 0-2.737.97-2.737 2.36v.028c0 1.464 1.241 1.94 2.404 2.27l.186.058c.848.259 1.578.483 1.578 1.076v.03c0 .542-.476.947-1.24.947a4.165 4.165 0 0 1-2.267-.65c-.123-.072-.194-.124-.29-.182-.05-.031-.176-.085-.232.08l-.347.96m25.764-.001c-.055.141.018.17.036.194.162.117.324.2.49.295.874.462 1.701.597 2.565.597 1.76 0 2.853-.932 2.853-2.434v-.029c0-1.388-1.234-1.893-2.39-2.257l-.151-.048c-.873-.282-1.626-.526-1.626-1.1v-.028c0-.49.44-.85 1.122-.85.758 0 1.657.25 2.236.57 0 0 .172.11.233-.055l.359-.96c.032-.092-.026-.161-.086-.198-.662-.4-1.575-.674-2.522-.674l-.175.001c-1.612 0-2.736.97-2.736 2.36v.028c0 1.464 1.241 1.94 2.403 2.27l.186.058c.848.259 1.58.483 1.58 1.076v.03c0 .542-.476.947-1.242.947a4.168 4.168 0 0 1-2.267-.65c-.123-.072-.196-.121-.29-.182-.031-.02-.18-.077-.23.08l-.348.96m19.056-4.515a3.517 3.517 0 0 0-.668-1.271 3.211 3.211 0 0 0-1.128-.854c-.45-.209-.979-.316-1.574-.316-.596 0-1.127.107-1.576.316a3.207 3.207 0 0 0-1.128.855c-.3.357-.524.786-.668 1.27a5.522 5.522 0 0 0-.217 1.573c0 .56.074 1.09.217 1.573.144.485.369.913.668 1.272.3.357.68.644 1.129.847.449.204.979.307 1.575.307.595 0 1.123-.103 1.574-.307.448-.203.828-.49 1.128-.847.299-.357.524-.786.668-1.272a5.516 5.516 0 0 0 .217-1.573c0-.56-.073-1.089-.217-1.573m-1.469 1.573c0 .848-.159 1.518-.471 1.99-.31.467-.778.696-1.43.696-.653 0-1.119-.229-1.424-.696-.309-.472-.465-1.142-.465-1.99 0-.847.156-1.515.464-1.982.306-.462.772-.688 1.425-.688.652 0 1.12.226 1.43.688.312.467.471 1.135.471 1.982m13.532 2.459c-.048-.142-.188-.088-.188-.088-.213.081-.44.156-.683.193a5.13 5.13 0 0 1-.804.058c-.71 0-1.276-.211-1.681-.627-.405-.417-.633-1.09-.63-2.001.002-.828.202-1.451.563-1.927.358-.473.904-.715 1.63-.715.606 0 1.068.07 1.553.221 0 0 .116.05.17-.1.13-.357.224-.61.362-1 .039-.113-.057-.159-.092-.173a5.75 5.75 0 0 0-.98-.247 7.53 7.53 0 0 0-1.102-.073c-.617 0-1.166.105-1.637.314-.47.207-.867.495-1.184.853a3.608 3.608 0 0 0-.713 1.271 5.011 5.011 0 0 0-.24 1.577c0 1.214.328 2.195.977 2.912.65.723 1.627 1.088 2.9 1.088.753 0 1.525-.152 2.08-.37 0 0 .107-.05.06-.174l-.36-.992m7.515-4.307a3.08 3.08 0 0 0-.636-1.16c-.32-.344-.634-.584-.944-.717a3.635 3.635 0 0 0-1.425-.288c-.62 0-1.184.105-1.642.318a3.262 3.262 0 0 0-1.144.871 3.584 3.584 0 0 0-.674 1.286 5.539 5.539 0 0 0-.218 1.58c0 .572.076 1.105.226 1.582.151.484.393.907.72 1.26a3.3 3.3 0 0 0 1.25.826c.501.192 1.109.293 1.806.29 1.436-.004 2.193-.323 2.504-.495.056-.031.107-.084.043-.237l-.327-.908c-.049-.134-.186-.085-.186-.085-.357.132-.861.368-2.041.366-.772-.001-1.343-.228-1.701-.583-.367-.362-.549-.895-.58-1.647l4.973.004s.13-.002.145-.13c.005-.052.17-1.017-.15-2.133m-4.944 1.035c.07-.471.2-.863.402-1.168.304-.464.768-.72 1.42-.72.654 0 1.084.256 1.394.72.206.306.295.713.33 1.17l-3.546-.002m-34.88-1.035a3.078 3.078 0 0 0-.635-1.16c-.32-.344-.633-.584-.945-.717a3.639 3.639 0 0 0-1.423-.288c-.622 0-1.185.105-1.643.318a3.26 3.26 0 0 0-1.145.871 3.584 3.584 0 0 0-.673 1.286 5.539 5.539 0 0 0-.218 1.58c0 .572.075 1.105.225 1.582.152.484.394.907.72 1.26a3.3 3.3 0 0 0 1.251.826c.5.192 1.108.293 1.806.29 1.436-.004 2.192-.323 2.504-.495.055-.031.107-.084.043-.237l-.327-.908c-.05-.134-.187-.085-.187-.085-.356.132-.86.368-2.041.366-.77-.001-1.343-.228-1.7-.583-.368-.362-.55-.895-.58-1.647l4.972.004s.131-.002.145-.13c.005-.052.17-1.017-.149-2.133m-4.945 1.035c.07-.471.2-.863.401-1.168.306-.464.77-.72 1.422-.72.653 0 1.085.256 1.395.72.204.306.294.713.329 1.17l-3.547-.002m-8.77-.237a10.93 10.93 0 0 0-.775-.022c-.427 0-.839.053-1.226.157a3.215 3.215 0 0 0-1.037.478 2.393 2.393 0 0 0-.722.818 2.373 2.373 0 0 0-.266 1.14c0 .44.076.821.228 1.133.152.313.37.574.648.775a2.73 2.73 0 0 0 1.013.437c.39.09.833.135 1.318.135.51 0 1.017-.043 1.51-.126a29.29 29.29 0 0 0 1.252-.242 9.77 9.77 0 0 0 .348-.088c.124-.032.114-.162.114-.162l-.003-4.53c0-.996-.266-1.732-.79-2.19-.521-.454-1.29-.684-2.284-.684-.373 0-.972.05-1.333.122 0 0-1.085.21-1.532.56 0 0-.098.06-.045.196l.352.943c.044.121.164.08.164.08s.038-.015.082-.041c.955-.518 2.166-.503 2.166-.503.537 0 .95.11 1.23.32.27.209.408.52.408 1.181v.21c-.427-.061-.82-.097-.82-.097m-1.978 3.481c-.196-.154-.222-.193-.286-.293-.1-.152-.15-.368-.15-.645 0-.435.145-.749.443-.958-.002 0 .43-.372 1.443-.358.712.008 1.35.114 1.35.114v2.252s-.632.135-1.343.177c-1.01.062-1.461-.29-1.457-.289m42.085-6.034a.134.134 0 0 0-.074-.178 4.53 4.53 0 0 0-.833-.142c-.626-.038-.973.066-1.283.206-.309.138-.65.363-.84.618v-.604c0-.083-.06-.15-.143-.15h-1.275c-.083 0-.143.067-.143.15v7.39c0 .084.067.15.152.15h1.306a.15.15 0 0 0 .15-.15V28.14c0-.496.056-.99.165-1.3.108-.308.254-.553.435-.728a1.51 1.51 0 0 1 .616-.369c.23-.07.486-.094.665-.094.261 0 .546.068.546.068.097.01.15-.049.183-.134.085-.227.328-.906.373-1.04" fill="#FFF"/><path d="M51.278 21.117a3.96 3.96 0 0 0-1.168-.168c-.899 0-1.608.254-2.106.754-.494.496-.83 1.252-1 2.246l-.06.335h-1.129s-.138-.005-.166.145l-.185 1.03c-.014.098.029.16.161.16h1.1l-1.116 6.2c-.087.5-.187.91-.298 1.222-.108.307-.215.537-.346.704-.128.161-.248.282-.456.351a1.88 1.88 0 0 1-.585.083c-.12 0-.28-.02-.398-.044-.119-.023-.18-.05-.269-.085 0 0-.128-.05-.18.079-.04.105-.333.908-.368 1.007-.035.098.014.175.077.197.146.052.254.086.454.132.277.066.51.07.728.07.458 0 .875-.064 1.22-.189.349-.126.652-.344.92-.638.289-.32.472-.653.646-1.11a9.466 9.466 0 0 0 .437-1.664l1.12-6.315h1.638s.138.005.166-.145l.186-1.03c.012-.098-.03-.16-.162-.16h-1.59c.008-.035.08-.593.262-1.117a1.44 1.44 0 0 1 .35-.528 1.04 1.04 0 0 1 .416-.26 1.76 1.76 0 0 1 .533-.075c.15 0 .296.018.409.04.153.033.214.051.254.062.162.05.183.003.216-.075l.38-1.04c.039-.112-.056-.16-.091-.174M29.063 31.833c0 .083-.06.15-.143.15h-1.319c-.083 0-.142-.067-.142-.15V21.258c0-.083.06-.15.142-.15h1.319c.083 0 .143.067.143.15v10.575" fill="#FFF"/></g></svg>