<svg id="Layer_1" data-name="Layer 1" xmlns="http://www.w3.org/2000/svg" width="1.25in" height="0.61in" viewBox="0 0 90.11 44.13"><defs><style>.cls-1{fill:#fff;}.cls-2{fill:#e2231a;}</style></defs><title>logo</title><g id="sec-5---Social"><path id="path6045" class="cls-1" d="M0,9,86.39,0l3.71,35.1-86.39,9Z"/><polygon id="polygon6047" class="cls-2" points="0 9.03 3.71 44.13 90.11 35.1 86.39 0 0 9.03"/><g id="g6157"><path id="path6165" class="cls-1" d="M14.18,32h0c-5.12.54-6-2.73-6.18-4.16v0l2.71-.28v0c.09.68.56,2.22,3,2a4.11,4.11,0,0,0,1.82-.55,1.53,1.53,0,0,0,.72-1.54c-.11-1-1-1.26-2.55-1.48l-1.45-.21C10,25.4,7.92,25.1,7.59,22a4.45,4.45,0,0,1,.64-2.88,5.13,5.13,0,0,1,4-2,5.11,5.11,0,0,1,4.28,1.22A4.8,4.8,0,0,1,17.9,21.1v0l-2.7.28v0c-.13-.57-.47-2.08-2.9-1.82a3.06,3.06,0,0,0-1.49.52,1.44,1.44,0,0,0-.6,1.38c.12,1.1,1,1.23,1.53,1.3l3.31.51c1.86.28,3.61.9,3.88,3.46a4.16,4.16,0,0,1-1.76,4.16,6.78,6.78,0,0,1-3,1"/></g><g id="g6167"><polygon id="polygon6175" class="cls-1" points="24.77 18.7 26 30.34 23.18 30.64 23.18 30.61 21.95 19 17.96 19.41 17.69 16.85 28.49 15.72 28.76 18.28 24.77 18.7"/></g><g id="g6177"><polygon id="polygon6185" class="cls-1" points="61.12 26.66 61.12 26.63 59.62 12.46 59.65 12.46 69.39 11.44 69.66 14 62.65 14.73 62.96 17.64 69.39 16.97 69.67 19.53 63.23 20.21 63.61 23.81 70.93 23.05 71.2 25.61 71.17 25.61 61.12 26.66"/></g><g id="g6187"><path id="path6195" class="cls-1" d="M77.73,25.3h0c-2.13.22-3.76-.19-4.83-1.23a4.81,4.81,0,0,1-1.34-2.93v0l2.7-.28v0c.09.68.56,2.22,3,2a4.14,4.14,0,0,0,1.82-.55,1.54,1.54,0,0,0,.72-1.54c-.11-1-1-1.26-2.55-1.48L75.8,19c-2.23-.31-4.33-.61-4.66-3.75-.11-1-.09-4.42,4.64-4.92a5.12,5.12,0,0,1,4.28,1.22,4.8,4.8,0,0,1,1.38,2.84v0l-2.7.28v0c-.13-.57-.46-2.08-2.9-1.82-1.1.11-2.22.68-2.09,1.9s1,1.23,1.53,1.3l3.31.51c1.86.28,3.61.9,3.88,3.47a4.16,4.16,0,0,1-1.77,4.16,6.75,6.75,0,0,1-3,1"/></g><g id="g6197"><path id="path6205" class="cls-1" d="M51.15,26.14l-1.1-10.43a2.68,2.68,0,0,1,2.44-2.9,2.73,2.73,0,0,1,3,2.29l1.21,4.32-2.37.84L52.87,15.4l-.11,0,1,9.4,6.49-.68.27,2.62-7.5.79-.28,0a1.58,1.58,0,0,1-1.59-1.43"/></g><g id="g6207"><path id="path6215" class="cls-1" d="M36.84,29.21v0l-1.14-2.81-4.83.51-.61,3-3,.31v0l3.22-14.66,3.22-.34v0l6.16,13.7Zm-5.49-4.9L34.64,24l-2.2-5.36Z"/></g><g id="g6217"><path id="path6225" class="cls-1" d="M43.33,28.53l-2.82.3v0L39,14.62,45.08,14c2.55-.27,4.31,1.31,4.61,4.13a5.51,5.51,0,0,1-.49,2.83,3.84,3.84,0,0,1-3.27,2.15l-3.13.33Zm-.8-7.6,2.53-.26a1.86,1.86,0,0,0,1.8-2.39c-.15-1.37-.9-1.85-2.6-1.67l-2.16.23Z"/></g><g id="g6227"><path id="path6235" class="cls-1" d="M81.23,10a.93.93,0,1,1-.84,1,.93.93,0,0,1,.84-1m.18,1.71a.79.79,0,1,0-.85-.71.77.77,0,0,0,.85.71m-.5-1.29.42,0c.26,0,.39.06.41.27a.28.28,0,0,1-.25.32l.36.44-.18,0L81.32,11l-.18,0,0,.47-.17,0-.11-1.08Zm.22.46.18,0c.15,0,.28,0,.26-.21s-.14-.15-.26-.14l-.22,0,0,.34Z"/></g></g></svg>